ply
format ascii 1.0
comment Created by Blender 2.77 (sub 0) - www.blender.org, source file: ''
element vertex 400
property float x
property float y
property float z
property float nx
property float ny
property float nz
element face 722
property list uchar uint vertex_indices
end_header
-0.894737 -1.000000 0.000000 -0.000000 0.000000 1.000000
-1.000000 -0.894737 0.000000 -0.000000 0.000000 1.000000
-1.000000 -1.000000 0.000000 -0.000000 0.000000 1.000000
-0.789474 -1.000000 0.000000 -0.000000 0.000000 1.000000
-0.894737 -0.894737 0.000000 -0.000000 0.000000 1.000000
-0.684211 -1.000000 0.000000 -0.000000 0.000000 1.000000
-0.789474 -0.894737 0.000000 -0.000000 0.000000 1.000000
-0.578947 -1.000000 0.000000 -0.000000 0.000000 1.000000
-0.684211 -0.894737 0.000000 -0.000000 0.000000 1.000000
-0.473684 -1.000000 0.000000 -0.000000 0.000000 1.000000
-0.578947 -0.894737 0.000000 -0.000000 0.000000 1.000000
-0.368421 -1.000000 0.000000 -0.000000 0.000000 1.000000
-0.473684 -0.894737 0.000000 -0.000000 0.000000 1.000000
-0.263158 -1.000000 0.000000 -0.000000 0.000000 1.000000
-0.368421 -0.894737 0.000000 -0.000000 0.000000 1.000000
-0.157895 -1.000000 0.000000 -0.000000 0.000000 1.000000
-0.263158 -0.894737 0.000000 -0.000000 0.000000 1.000000
-0.052632 -1.000000 0.000000 -0.000000 0.000000 1.000000
-0.157895 -0.894737 0.000000 -0.000000 0.000000 1.000000
0.052632 -1.000000 0.000000 -0.000000 0.000000 1.000000
-0.052632 -0.894737 0.000000 -0.000000 0.000000 1.000000
0.157895 -1.000000 0.000000 -0.000000 0.000000 1.000000
0.052632 -0.894737 0.000000 -0.000000 0.000000 1.000000
0.263158 -1.000000 0.000000 -0.000000 0.000000 1.000000
0.157895 -0.894737 0.000000 -0.000000 0.000000 1.000000
0.368421 -1.000000 0.000000 -0.000000 0.000000 1.000000
0.263158 -0.894737 0.000000 -0.000000 0.000000 1.000000
0.473684 -1.000000 0.000000 -0.000000 0.000000 1.000000
0.368421 -0.894737 0.000000 -0.000000 0.000000 1.000000
0.578947 -1.000000 0.000000 -0.000000 0.000000 1.000000
0.473684 -0.894737 0.000000 -0.000000 0.000000 1.000000
0.684211 -1.000000 0.000000 -0.000000 0.000000 1.000000
0.578947 -0.894737 0.000000 -0.000000 0.000000 1.000000
0.789474 -1.000000 0.000000 -0.000000 0.000000 1.000000
0.684211 -0.894737 0.000000 -0.000000 0.000000 1.000000
0.894737 -1.000000 0.000000 -0.000000 0.000000 1.000000
0.789474 -0.894737 0.000000 -0.000000 0.000000 1.000000
1.000000 -1.000000 0.000000 -0.000000 0.000000 1.000000
0.894737 -0.894737 0.000000 -0.000000 0.000000 1.000000
-1.000000 -0.789474 0.000000 -0.000000 0.000000 1.000000
-0.894737 -0.789474 0.000000 -0.000000 0.000000 1.000000
-0.789474 -0.789474 0.000000 -0.000000 0.000000 1.000000
-0.684211 -0.789474 0.000000 -0.000000 0.000000 1.000000
-0.578947 -0.789474 0.000000 -0.000000 0.000000 1.000000
-0.473684 -0.789474 0.000000 -0.000000 0.000000 1.000000
-0.368421 -0.789474 0.000000 -0.000000 0.000000 1.000000
-0.263158 -0.789474 0.000000 -0.000000 0.000000 1.000000
-0.157895 -0.789474 0.000000 -0.000000 0.000000 1.000000
-0.052632 -0.789474 0.000000 -0.000000 0.000000 1.000000
0.052632 -0.789474 0.000000 -0.000000 0.000000 1.000000
0.157895 -0.789474 0.000000 -0.000000 0.000000 1.000000
0.263158 -0.789474 0.000000 -0.000000 0.000000 1.000000
0.368421 -0.789474 0.000000 -0.000000 0.000000 1.000000
0.473684 -0.789474 0.000000 -0.000000 0.000000 1.000000
0.578947 -0.789474 0.000000 -0.000000 0.000000 1.000000
0.684211 -0.789474 0.000000 -0.000000 0.000000 1.000000
0.789474 -0.789474 0.000000 -0.000000 0.000000 1.000000
1.000000 -0.894737 0.000000 -0.000000 0.000000 1.000000
0.894737 -0.789474 0.000000 -0.000000 0.000000 1.000000
-1.000000 -0.684211 0.000000 -0.000000 0.000000 1.000000
-0.894737 -0.684211 0.000000 -0.000000 0.000000 1.000000
-0.789474 -0.684211 0.000000 -0.000000 0.000000 1.000000
-0.684211 -0.684211 0.000000 -0.000000 0.000000 1.000000
-0.578947 -0.684211 0.000000 -0.000000 0.000000 1.000000
-0.473684 -0.684211 0.000000 -0.000000 0.000000 1.000000
-0.368421 -0.684211 0.000000 -0.000000 0.000000 1.000000
-0.263158 -0.684211 0.000000 -0.000000 0.000000 1.000000
-0.157895 -0.684211 0.000000 -0.000000 0.000000 1.000000
-0.052632 -0.684211 0.000000 -0.000000 0.000000 1.000000
0.052632 -0.684211 0.000000 -0.000000 0.000000 1.000000
0.157895 -0.684211 0.000000 -0.000000 0.000000 1.000000
0.263158 -0.684211 0.000000 -0.000000 0.000000 1.000000
0.368421 -0.684211 0.000000 -0.000000 0.000000 1.000000
0.473684 -0.684211 0.000000 -0.000000 0.000000 1.000000
0.578947 -0.684211 0.000000 -0.000000 0.000000 1.000000
0.684211 -0.684211 0.000000 -0.000000 0.000000 1.000000
0.789474 -0.684211 0.000000 -0.000000 0.000000 1.000000
1.000000 -0.789474 0.000000 -0.000000 0.000000 1.000000
0.894737 -0.684211 0.000000 -0.000000 0.000000 1.000000
-1.000000 -0.578947 0.000000 -0.000000 0.000000 1.000000
-0.894737 -0.578947 0.000000 -0.000000 0.000000 1.000000
-0.789474 -0.578947 0.000000 -0.000000 0.000000 1.000000
-0.684211 -0.578947 0.000000 -0.000000 0.000000 1.000000
-0.578947 -0.578947 0.000000 -0.000000 0.000000 1.000000
-0.473684 -0.578947 0.000000 -0.000000 0.000000 1.000000
-0.368421 -0.578947 0.000000 -0.000000 0.000000 1.000000
-0.263158 -0.578947 0.000000 -0.000000 0.000000 1.000000
-0.157895 -0.578947 0.000000 -0.000000 0.000000 1.000000
-0.052632 -0.578947 0.000000 -0.000000 0.000000 1.000000
0.052632 -0.578947 0.000000 -0.000000 0.000000 1.000000
0.157895 -0.578947 0.000000 -0.000000 0.000000 1.000000
0.263158 -0.578947 0.000000 -0.000000 0.000000 1.000000
0.368421 -0.578947 0.000000 -0.000000 0.000000 1.000000
0.473684 -0.578947 0.000000 -0.000000 0.000000 1.000000
0.578947 -0.578947 0.000000 -0.000000 0.000000 1.000000
0.684211 -0.578947 0.000000 -0.000000 0.000000 1.000000
0.789474 -0.578947 0.000000 -0.000000 0.000000 1.000000
1.000000 -0.684211 0.000000 -0.000000 0.000000 1.000000
0.894737 -0.578947 0.000000 -0.000000 0.000000 1.000000
-1.000000 -0.473684 0.000000 -0.000000 0.000000 1.000000
-0.894737 -0.473684 0.000000 -0.000000 0.000000 1.000000
-0.789474 -0.473684 0.000000 -0.000000 0.000000 1.000000
-0.684211 -0.473684 0.000000 -0.000000 0.000000 1.000000
-0.578947 -0.473684 0.000000 -0.000000 0.000000 1.000000
-0.473684 -0.473684 0.000000 -0.000000 0.000000 1.000000
-0.368421 -0.473684 0.000000 -0.000000 0.000000 1.000000
-0.263158 -0.473684 0.000000 -0.000000 0.000000 1.000000
-0.157895 -0.473684 0.000000 -0.000000 0.000000 1.000000
-0.052632 -0.473684 0.000000 -0.000000 0.000000 1.000000
0.052632 -0.473684 0.000000 -0.000000 0.000000 1.000000
0.157895 -0.473684 0.000000 -0.000000 0.000000 1.000000
0.263158 -0.473684 0.000000 -0.000000 0.000000 1.000000
0.368421 -0.473684 0.000000 -0.000000 0.000000 1.000000
0.473684 -0.473684 0.000000 -0.000000 0.000000 1.000000
0.578947 -0.473684 0.000000 -0.000000 0.000000 1.000000
0.684211 -0.473684 0.000000 -0.000000 0.000000 1.000000
0.789474 -0.473684 0.000000 -0.000000 0.000000 1.000000
1.000000 -0.578947 0.000000 -0.000000 0.000000 1.000000
0.894737 -0.473684 0.000000 -0.000000 0.000000 1.000000
-1.000000 -0.368421 0.000000 -0.000000 0.000000 1.000000
-0.894737 -0.368421 0.000000 -0.000000 0.000000 1.000000
-0.789474 -0.368421 0.000000 -0.000000 0.000000 1.000000
-0.684211 -0.368421 0.000000 -0.000000 0.000000 1.000000
-0.578947 -0.368421 0.000000 -0.000000 0.000000 1.000000
-0.473684 -0.368421 0.000000 -0.000000 0.000000 1.000000
-0.368421 -0.368421 0.000000 -0.000000 0.000000 1.000000
-0.263158 -0.368421 0.000000 -0.000000 0.000000 1.000000
-0.157895 -0.368421 0.000000 -0.000000 0.000000 1.000000
-0.052632 -0.368421 0.000000 -0.000000 0.000000 1.000000
0.052632 -0.368421 0.000000 -0.000000 0.000000 1.000000
0.157895 -0.368421 0.000000 -0.000000 0.000000 1.000000
0.263158 -0.368421 0.000000 -0.000000 0.000000 1.000000
0.368421 -0.368421 0.000000 -0.000000 0.000000 1.000000
0.473684 -0.368421 0.000000 -0.000000 0.000000 1.000000
0.578947 -0.368421 0.000000 -0.000000 0.000000 1.000000
0.684211 -0.368421 0.000000 -0.000000 0.000000 1.000000
0.789474 -0.368421 0.000000 -0.000000 0.000000 1.000000
1.000000 -0.473684 0.000000 -0.000000 0.000000 1.000000
0.894737 -0.368421 0.000000 -0.000000 0.000000 1.000000
-1.000000 -0.263158 0.000000 -0.000000 0.000000 1.000000
-0.894737 -0.263158 0.000000 -0.000000 0.000000 1.000000
-0.789474 -0.263158 0.000000 -0.000000 0.000000 1.000000
-0.684211 -0.263158 0.000000 -0.000000 0.000000 1.000000
-0.578947 -0.263158 0.000000 -0.000000 0.000000 1.000000
-0.473684 -0.263158 0.000000 -0.000000 0.000000 1.000000
-0.368421 -0.263158 0.000000 -0.000000 0.000000 1.000000
-0.263158 -0.263158 0.000000 -0.000000 0.000000 1.000000
-0.157895 -0.263158 0.000000 -0.000000 0.000000 1.000000
-0.052632 -0.263158 0.000000 -0.000000 0.000000 1.000000
0.052632 -0.263158 0.000000 -0.000000 0.000000 1.000000
0.157895 -0.263158 0.000000 -0.000000 0.000000 1.000000
0.263158 -0.263158 0.000000 -0.000000 0.000000 1.000000
0.368421 -0.263158 0.000000 -0.000000 0.000000 1.000000
0.473684 -0.263158 0.000000 -0.000000 0.000000 1.000000
0.578947 -0.263158 0.000000 -0.000000 0.000000 1.000000
0.684211 -0.263158 0.000000 -0.000000 0.000000 1.000000
0.789474 -0.263158 0.000000 -0.000000 0.000000 1.000000
1.000000 -0.368421 0.000000 -0.000000 0.000000 1.000000
0.894737 -0.263158 0.000000 -0.000000 0.000000 1.000000
-1.000000 -0.157895 0.000000 -0.000000 0.000000 1.000000
-0.894737 -0.157895 0.000000 -0.000000 0.000000 1.000000
-0.789474 -0.157895 0.000000 -0.000000 0.000000 1.000000
-0.684211 -0.157895 0.000000 -0.000000 0.000000 1.000000
-0.578947 -0.157895 0.000000 -0.000000 0.000000 1.000000
-0.473684 -0.157895 0.000000 -0.000000 0.000000 1.000000
-0.368421 -0.157895 0.000000 -0.000000 0.000000 1.000000
-0.263158 -0.157895 0.000000 -0.000000 0.000000 1.000000
-0.157895 -0.157895 0.000000 -0.000000 0.000000 1.000000
-0.052632 -0.157895 0.000000 -0.000000 0.000000 1.000000
0.052632 -0.157895 0.000000 -0.000000 0.000000 1.000000
0.157895 -0.157895 0.000000 -0.000000 0.000000 1.000000
0.263158 -0.157895 0.000000 -0.000000 0.000000 1.000000
0.368421 -0.157895 0.000000 -0.000000 0.000000 1.000000
0.473684 -0.157895 0.000000 -0.000000 0.000000 1.000000
0.578947 -0.157895 0.000000 -0.000000 0.000000 1.000000
0.684211 -0.157895 0.000000 -0.000000 0.000000 1.000000
0.789474 -0.157895 0.000000 -0.000000 0.000000 1.000000
1.000000 -0.263158 0.000000 -0.000000 0.000000 1.000000
0.894737 -0.157895 0.000000 -0.000000 0.000000 1.000000
-1.000000 -0.052632 0.000000 -0.000000 0.000000 1.000000
-0.894737 -0.052632 0.000000 -0.000000 0.000000 1.000000
-0.789474 -0.052632 0.000000 -0.000000 0.000000 1.000000
-0.684211 -0.052632 0.000000 -0.000000 0.000000 1.000000
-0.578947 -0.052632 0.000000 -0.000000 0.000000 1.000000
-0.473684 -0.052632 0.000000 -0.000000 0.000000 1.000000
-0.368421 -0.052632 0.000000 -0.000000 0.000000 1.000000
-0.263158 -0.052632 0.000000 -0.000000 0.000000 1.000000
-0.157895 -0.052632 0.000000 -0.000000 0.000000 1.000000
-0.052632 -0.052632 0.000000 -0.000000 0.000000 1.000000
0.052632 -0.052632 0.000000 -0.000000 0.000000 1.000000
0.157895 -0.052632 0.000000 -0.000000 0.000000 1.000000
0.263158 -0.052632 0.000000 -0.000000 0.000000 1.000000
0.368421 -0.052632 0.000000 -0.000000 0.000000 1.000000
0.473684 -0.052632 0.000000 -0.000000 0.000000 1.000000
0.578947 -0.052632 0.000000 -0.000000 0.000000 1.000000
0.684211 -0.052632 0.000000 -0.000000 0.000000 1.000000
0.789474 -0.052632 0.000000 -0.000000 0.000000 1.000000
1.000000 -0.157895 0.000000 -0.000000 0.000000 1.000000
0.894737 -0.052632 0.000000 -0.000000 0.000000 1.000000
-1.000000 0.052632 0.000000 -0.000000 0.000000 1.000000
-0.894737 0.052632 0.000000 -0.000000 0.000000 1.000000
-0.789474 0.052632 0.000000 -0.000000 0.000000 1.000000
-0.684211 0.052632 0.000000 -0.000000 0.000000 1.000000
-0.578947 0.052632 0.000000 -0.000000 0.000000 1.000000
-0.473684 0.052632 0.000000 -0.000000 0.000000 1.000000
-0.368421 0.052632 0.000000 -0.000000 0.000000 1.000000
-0.263158 0.052632 0.000000 -0.000000 0.000000 1.000000
-0.157895 0.052632 0.000000 -0.000000 0.000000 1.000000
-0.052632 0.052632 0.000000 -0.000000 0.000000 1.000000
0.052632 0.052632 0.000000 -0.000000 0.000000 1.000000
0.157895 0.052632 0.000000 -0.000000 0.000000 1.000000
0.263158 0.052632 0.000000 -0.000000 0.000000 1.000000
0.368421 0.052632 0.000000 -0.000000 0.000000 1.000000
0.473684 0.052632 0.000000 -0.000000 0.000000 1.000000
0.578947 0.052632 0.000000 -0.000000 0.000000 1.000000
0.684211 0.052632 0.000000 -0.000000 0.000000 1.000000
0.789474 0.052632 0.000000 -0.000000 0.000000 1.000000
1.000000 -0.052632 0.000000 -0.000000 0.000000 1.000000
0.894737 0.052632 0.000000 -0.000000 0.000000 1.000000
-1.000000 0.157895 0.000000 -0.000000 0.000000 1.000000
-0.894737 0.157895 0.000000 -0.000000 0.000000 1.000000
-0.789474 0.157895 0.000000 -0.000000 0.000000 1.000000
-0.684211 0.157895 0.000000 -0.000000 0.000000 1.000000
-0.578947 0.157895 0.000000 -0.000000 0.000000 1.000000
-0.473684 0.157895 0.000000 -0.000000 0.000000 1.000000
-0.368421 0.157895 0.000000 -0.000000 0.000000 1.000000
-0.263158 0.157895 0.000000 -0.000000 0.000000 1.000000
-0.157895 0.157895 0.000000 -0.000000 0.000000 1.000000
-0.052632 0.157895 0.000000 -0.000000 0.000000 1.000000
0.052632 0.157895 0.000000 -0.000000 0.000000 1.000000
0.157895 0.157895 0.000000 -0.000000 0.000000 1.000000
0.263158 0.157895 0.000000 -0.000000 0.000000 1.000000
0.368421 0.157895 0.000000 -0.000000 0.000000 1.000000
0.473684 0.157895 0.000000 -0.000000 0.000000 1.000000
0.578947 0.157895 0.000000 -0.000000 0.000000 1.000000
0.684211 0.157895 0.000000 -0.000000 0.000000 1.000000
0.789474 0.157895 0.000000 -0.000000 0.000000 1.000000
1.000000 0.052632 0.000000 -0.000000 0.000000 1.000000
0.894737 0.157895 0.000000 -0.000000 0.000000 1.000000
-1.000000 0.263158 0.000000 -0.000000 0.000000 1.000000
-0.894737 0.263158 0.000000 -0.000000 0.000000 1.000000
-0.789474 0.263158 0.000000 -0.000000 0.000000 1.000000
-0.684211 0.263158 0.000000 -0.000000 0.000000 1.000000
-0.578947 0.263158 0.000000 -0.000000 0.000000 1.000000
-0.473684 0.263158 0.000000 -0.000000 0.000000 1.000000
-0.368421 0.263158 0.000000 -0.000000 0.000000 1.000000
-0.263158 0.263158 0.000000 -0.000000 0.000000 1.000000
-0.157895 0.263158 0.000000 -0.000000 0.000000 1.000000
-0.052632 0.263158 0.000000 -0.000000 0.000000 1.000000
0.052632 0.263158 0.000000 -0.000000 0.000000 1.000000
0.157895 0.263158 0.000000 -0.000000 0.000000 1.000000
0.263158 0.263158 0.000000 -0.000000 0.000000 1.000000
0.368421 0.263158 0.000000 -0.000000 0.000000 1.000000
0.473684 0.263158 0.000000 -0.000000 0.000000 1.000000
0.578947 0.263158 0.000000 -0.000000 0.000000 1.000000
0.684211 0.263158 0.000000 -0.000000 0.000000 1.000000
0.789474 0.263158 0.000000 -0.000000 0.000000 1.000000
1.000000 0.157895 0.000000 -0.000000 0.000000 1.000000
0.894737 0.263158 0.000000 -0.000000 0.000000 1.000000
-1.000000 0.368421 0.000000 -0.000000 0.000000 1.000000
-0.894737 0.368421 0.000000 -0.000000 0.000000 1.000000
-0.789474 0.368421 0.000000 -0.000000 0.000000 1.000000
-0.684211 0.368421 0.000000 -0.000000 0.000000 1.000000
-0.578947 0.368421 0.000000 -0.000000 0.000000 1.000000
-0.473684 0.368421 0.000000 -0.000000 0.000000 1.000000
-0.368421 0.368421 0.000000 -0.000000 0.000000 1.000000
-0.263158 0.368421 0.000000 -0.000000 0.000000 1.000000
-0.157895 0.368421 0.000000 -0.000000 0.000000 1.000000
-0.052632 0.368421 0.000000 -0.000000 0.000000 1.000000
0.052632 0.368421 0.000000 -0.000000 0.000000 1.000000
0.157895 0.368421 0.000000 -0.000000 0.000000 1.000000
0.263158 0.368421 0.000000 -0.000000 0.000000 1.000000
0.368421 0.368421 0.000000 -0.000000 0.000000 1.000000
0.473684 0.368421 0.000000 -0.000000 0.000000 1.000000
0.578947 0.368421 0.000000 -0.000000 0.000000 1.000000
0.684211 0.368421 0.000000 -0.000000 0.000000 1.000000
0.789474 0.368421 0.000000 -0.000000 0.000000 1.000000
1.000000 0.263158 0.000000 -0.000000 0.000000 1.000000
0.894737 0.368421 0.000000 -0.000000 0.000000 1.000000
-1.000000 0.473684 0.000000 -0.000000 0.000000 1.000000
-0.894737 0.473684 0.000000 -0.000000 0.000000 1.000000
-0.789474 0.473684 0.000000 -0.000000 0.000000 1.000000
-0.684211 0.473684 0.000000 -0.000000 0.000000 1.000000
-0.578947 0.473684 0.000000 -0.000000 0.000000 1.000000
-0.473684 0.473684 0.000000 -0.000000 0.000000 1.000000
-0.368421 0.473684 0.000000 -0.000000 0.000000 1.000000
-0.263158 0.473684 0.000000 -0.000000 0.000000 1.000000
-0.157895 0.473684 0.000000 -0.000000 0.000000 1.000000
-0.052632 0.473684 0.000000 -0.000000 0.000000 1.000000
0.052632 0.473684 0.000000 -0.000000 0.000000 1.000000
0.157895 0.473684 0.000000 -0.000000 0.000000 1.000000
0.263158 0.473684 0.000000 -0.000000 0.000000 1.000000
0.368421 0.473684 0.000000 -0.000000 0.000000 1.000000
0.473684 0.473684 0.000000 -0.000000 0.000000 1.000000
0.578947 0.473684 0.000000 -0.000000 0.000000 1.000000
0.684211 0.473684 0.000000 -0.000000 0.000000 1.000000
0.789474 0.473684 0.000000 -0.000000 0.000000 1.000000
1.000000 0.368421 0.000000 -0.000000 0.000000 1.000000
0.894737 0.473684 0.000000 -0.000000 0.000000 1.000000
-1.000000 0.578947 0.000000 -0.000000 0.000000 1.000000
-0.894737 0.578947 0.000000 -0.000000 0.000000 1.000000
-0.789474 0.578947 0.000000 -0.000000 0.000000 1.000000
-0.684211 0.578947 0.000000 -0.000000 0.000000 1.000000
-0.578947 0.578947 0.000000 -0.000000 0.000000 1.000000
-0.473684 0.578947 0.000000 -0.000000 0.000000 1.000000
-0.368421 0.578947 0.000000 -0.000000 0.000000 1.000000
-0.263158 0.578947 0.000000 -0.000000 0.000000 1.000000
-0.157895 0.578947 0.000000 -0.000000 0.000000 1.000000
-0.052632 0.578947 0.000000 -0.000000 0.000000 1.000000
0.052632 0.578947 0.000000 -0.000000 0.000000 1.000000
0.157895 0.578947 0.000000 -0.000000 0.000000 1.000000
0.263158 0.578947 0.000000 -0.000000 0.000000 1.000000
0.368421 0.578947 0.000000 -0.000000 0.000000 1.000000
0.473684 0.578947 0.000000 -0.000000 0.000000 1.000000
0.578947 0.578947 0.000000 -0.000000 0.000000 1.000000
0.684211 0.578947 0.000000 -0.000000 0.000000 1.000000
0.789474 0.578947 0.000000 -0.000000 0.000000 1.000000
1.000000 0.473684 0.000000 -0.000000 0.000000 1.000000
0.894737 0.578947 0.000000 -0.000000 0.000000 1.000000
-1.000000 0.684211 0.000000 -0.000000 0.000000 1.000000
-0.894737 0.684211 0.000000 -0.000000 0.000000 1.000000
-0.789474 0.684211 0.000000 -0.000000 0.000000 1.000000
-0.684211 0.684211 0.000000 -0.000000 0.000000 1.000000
-0.578947 0.684211 0.000000 -0.000000 0.000000 1.000000
-0.473684 0.684211 0.000000 -0.000000 0.000000 1.000000
-0.368421 0.684211 0.000000 -0.000000 0.000000 1.000000
-0.263158 0.684211 0.000000 -0.000000 0.000000 1.000000
-0.157895 0.684211 0.000000 -0.000000 0.000000 1.000000
-0.052632 0.684211 0.000000 -0.000000 0.000000 1.000000
0.052632 0.684211 0.000000 -0.000000 0.000000 1.000000
0.157895 0.684211 0.000000 -0.000000 0.000000 1.000000
0.263158 0.684211 0.000000 -0.000000 0.000000 1.000000
0.368421 0.684211 0.000000 -0.000000 0.000000 1.000000
0.473684 0.684211 0.000000 -0.000000 0.000000 1.000000
0.578947 0.684211 0.000000 -0.000000 0.000000 1.000000
0.684211 0.684211 0.000000 -0.000000 0.000000 1.000000
0.789474 0.684211 0.000000 -0.000000 0.000000 1.000000
1.000000 0.578947 0.000000 -0.000000 0.000000 1.000000
0.894737 0.684211 0.000000 -0.000000 0.000000 1.000000
-1.000000 0.789474 0.000000 -0.000000 0.000000 1.000000
-0.894737 0.789474 0.000000 -0.000000 0.000000 1.000000
-0.789474 0.789474 0.000000 -0.000000 0.000000 1.000000
-0.684211 0.789474 0.000000 -0.000000 0.000000 1.000000
-0.578947 0.789474 0.000000 -0.000000 0.000000 1.000000
-0.473684 0.789474 0.000000 -0.000000 0.000000 1.000000
-0.368421 0.789474 0.000000 -0.000000 0.000000 1.000000
-0.263158 0.789474 0.000000 -0.000000 0.000000 1.000000
-0.157895 0.789474 0.000000 -0.000000 0.000000 1.000000
-0.052632 0.789474 0.000000 -0.000000 0.000000 1.000000
0.052632 0.789474 0.000000 -0.000000 0.000000 1.000000
0.157895 0.789474 0.000000 -0.000000 0.000000 1.000000
0.263158 0.789474 0.000000 -0.000000 0.000000 1.000000
0.368421 0.789474 0.000000 -0.000000 0.000000 1.000000
0.473684 0.789474 0.000000 -0.000000 0.000000 1.000000
0.578947 0.789474 0.000000 -0.000000 0.000000 1.000000
0.684211 0.789474 0.000000 -0.000000 0.000000 1.000000
0.789474 0.789474 0.000000 -0.000000 0.000000 1.000000
1.000000 0.684211 0.000000 -0.000000 0.000000 1.000000
0.894737 0.789474 0.000000 -0.000000 0.000000 1.000000
-1.000000 0.894737 0.000000 -0.000000 0.000000 1.000000
-0.894737 0.894737 0.000000 -0.000000 0.000000 1.000000
-0.789474 0.894737 0.000000 -0.000000 0.000000 1.000000
-0.684211 0.894737 0.000000 -0.000000 0.000000 1.000000
-0.578947 0.894737 0.000000 -0.000000 0.000000 1.000000
-0.473684 0.894737 0.000000 -0.000000 0.000000 1.000000
-0.368421 0.894737 0.000000 -0.000000 0.000000 1.000000
-0.263158 0.894737 0.000000 -0.000000 0.000000 1.000000
-0.157895 0.894737 0.000000 -0.000000 0.000000 1.000000
-0.052632 0.894737 0.000000 -0.000000 0.000000 1.000000
0.052632 0.894737 0.000000 -0.000000 0.000000 1.000000
0.157895 0.894737 0.000000 -0.000000 0.000000 1.000000
0.263158 0.894737 0.000000 -0.000000 0.000000 1.000000
0.368421 0.894737 0.000000 -0.000000 0.000000 1.000000
0.473684 0.894737 0.000000 -0.000000 0.000000 1.000000
0.578947 0.894737 0.000000 -0.000000 0.000000 1.000000
0.684211 0.894737 0.000000 -0.000000 0.000000 1.000000
0.789474 0.894737 0.000000 -0.000000 0.000000 1.000000
1.000000 0.789474 0.000000 -0.000000 0.000000 1.000000
0.894737 0.894737 0.000000 -0.000000 0.000000 1.000000
-1.000000 1.000000 0.000000 -0.000000 0.000000 1.000000
-0.894737 1.000000 0.000000 -0.000000 0.000000 1.000000
-0.789474 1.000000 0.000000 -0.000000 0.000000 1.000000
-0.684211 1.000000 0.000000 -0.000000 0.000000 1.000000
-0.578947 1.000000 0.000000 -0.000000 0.000000 1.000000
-0.473684 1.000000 0.000000 -0.000000 0.000000 1.000000
-0.368421 1.000000 0.000000 -0.000000 0.000000 1.000000
-0.263158 1.000000 0.000000 -0.000000 0.000000 1.000000
-0.157895 1.000000 0.000000 -0.000000 0.000000 1.000000
-0.052632 1.000000 0.000000 -0.000000 0.000000 1.000000
0.052632 1.000000 0.000000 -0.000000 0.000000 1.000000
0.157895 1.000000 0.000000 -0.000000 0.000000 1.000000
0.263158 1.000000 0.000000 -0.000000 0.000000 1.000000
0.368421 1.000000 0.000000 -0.000000 0.000000 1.000000
0.473684 1.000000 0.000000 -0.000000 0.000000 1.000000
0.578947 1.000000 0.000000 -0.000000 0.000000 1.000000
0.684211 1.000000 0.000000 -0.000000 0.000000 1.000000
0.789474 1.000000 0.000000 -0.000000 0.000000 1.000000
1.000000 0.894737 0.000000 -0.000000 0.000000 1.000000
0.894737 1.000000 0.000000 -0.000000 0.000000 1.000000
1.000000 1.000000 0.000000 -0.000000 0.000000 1.000000
3 0 1 2
3 3 4 0
3 5 6 3
3 7 8 5
3 9 10 7
3 11 12 9
3 13 14 11
3 15 16 13
3 17 18 15
3 19 20 17
3 21 22 19
3 23 24 21
3 25 26 23
3 27 28 25
3 29 30 27
3 31 32 29
3 33 34 31
3 35 36 33
3 37 38 35
3 4 39 1
3 6 40 4
3 8 41 6
3 10 42 8
3 12 43 10
3 14 44 12
3 16 45 14
3 18 46 16
3 20 47 18
3 22 48 20
3 24 49 22
3 26 50 24
3 28 51 26
3 30 52 28
3 32 53 30
3 34 54 32
3 36 55 34
3 38 56 36
3 57 58 38
3 40 59 39
3 41 60 40
3 42 61 41
3 43 62 42
3 44 63 43
3 45 64 44
3 46 65 45
3 47 66 46
3 48 67 47
3 49 68 48
3 50 69 49
3 51 70 50
3 52 71 51
3 53 72 52
3 54 73 53
3 55 74 54
3 56 75 55
3 58 76 56
3 77 78 58
3 60 79 59
3 61 80 60
3 62 81 61
3 63 82 62
3 64 83 63
3 65 84 64
3 66 85 65
3 67 86 66
3 68 87 67
3 69 88 68
3 70 89 69
3 71 90 70
3 72 91 71
3 73 92 72
3 74 93 73
3 75 94 74
3 76 95 75
3 78 96 76
3 97 98 78
3 80 99 79
3 81 100 80
3 82 101 81
3 83 102 82
3 84 103 83
3 85 104 84
3 86 105 85
3 87 106 86
3 88 107 87
3 89 108 88
3 90 109 89
3 91 110 90
3 92 111 91
3 93 112 92
3 94 113 93
3 95 114 94
3 96 115 95
3 98 116 96
3 117 118 98
3 100 119 99
3 101 120 100
3 102 121 101
3 103 122 102
3 104 123 103
3 105 124 104
3 106 125 105
3 107 126 106
3 108 127 107
3 109 128 108
3 110 129 109
3 111 130 110
3 112 131 111
3 113 132 112
3 114 133 113
3 115 134 114
3 116 135 115
3 118 136 116
3 137 138 118
3 120 139 119
3 121 140 120
3 122 141 121
3 123 142 122
3 124 143 123
3 125 144 124
3 126 145 125
3 127 146 126
3 128 147 127
3 129 148 128
3 130 149 129
3 131 150 130
3 132 151 131
3 133 152 132
3 134 153 133
3 135 154 134
3 136 155 135
3 138 156 136
3 157 158 138
3 140 159 139
3 141 160 140
3 142 161 141
3 143 162 142
3 144 163 143
3 145 164 144
3 146 165 145
3 147 166 146
3 148 167 147
3 149 168 148
3 150 169 149
3 151 170 150
3 152 171 151
3 153 172 152
3 154 173 153
3 155 174 154
3 156 175 155
3 158 176 156
3 177 178 158
3 160 179 159
3 161 180 160
3 162 181 161
3 163 182 162
3 164 183 163
3 165 184 164
3 166 185 165
3 167 186 166
3 168 187 167
3 169 188 168
3 170 189 169
3 171 190 170
3 172 191 171
3 173 192 172
3 174 193 173
3 175 194 174
3 176 195 175
3 178 196 176
3 197 198 178
3 180 199 179
3 181 200 180
3 182 201 181
3 183 202 182
3 184 203 183
3 185 204 184
3 186 205 185
3 187 206 186
3 188 207 187
3 189 208 188
3 190 209 189
3 191 210 190
3 192 211 191
3 193 212 192
3 194 213 193
3 195 214 194
3 196 215 195
3 198 216 196
3 217 218 198
3 200 219 199
3 201 220 200
3 202 221 201
3 203 222 202
3 204 223 203
3 205 224 204
3 206 225 205
3 207 226 206
3 208 227 207
3 209 228 208
3 210 229 209
3 211 230 210
3 212 231 211
3 213 232 212
3 214 233 213
3 215 234 214
3 216 235 215
3 218 236 216
3 237 238 218
3 220 239 219
3 221 240 220
3 222 241 221
3 223 242 222
3 224 243 223
3 225 244 224
3 226 245 225
3 227 246 226
3 228 247 227
3 229 248 228
3 230 249 229
3 231 250 230
3 232 251 231
3 233 252 232
3 234 253 233
3 235 254 234
3 236 255 235
3 238 256 236
3 257 258 238
3 240 259 239
3 241 260 240
3 242 261 241
3 243 262 242
3 244 263 243
3 245 264 244
3 246 265 245
3 247 266 246
3 248 267 247
3 249 268 248
3 250 269 249
3 251 270 250
3 252 271 251
3 253 272 252
3 254 273 253
3 255 274 254
3 256 275 255
3 258 276 256
3 277 278 258
3 260 279 259
3 261 280 260
3 262 281 261
3 263 282 262
3 264 283 263
3 265 284 264
3 266 285 265
3 267 286 266
3 268 287 267
3 269 288 268
3 270 289 269
3 271 290 270
3 272 291 271
3 273 292 272
3 274 293 273
3 275 294 274
3 276 295 275
3 278 296 276
3 297 298 278
3 280 299 279
3 281 300 280
3 282 301 281
3 283 302 282
3 284 303 283
3 285 304 284
3 286 305 285
3 287 306 286
3 288 307 287
3 289 308 288
3 290 309 289
3 291 310 290
3 292 311 291
3 293 312 292
3 294 313 293
3 295 314 294
3 296 315 295
3 298 316 296
3 317 318 298
3 300 319 299
3 301 320 300
3 302 321 301
3 303 322 302
3 304 323 303
3 305 324 304
3 306 325 305
3 307 326 306
3 308 327 307
3 309 328 308
3 310 329 309
3 311 330 310
3 312 331 311
3 313 332 312
3 314 333 313
3 315 334 314
3 316 335 315
3 318 336 316
3 337 338 318
3 320 339 319
3 321 340 320
3 322 341 321
3 323 342 322
3 324 343 323
3 325 344 324
3 326 345 325
3 327 346 326
3 328 347 327
3 329 348 328
3 330 349 329
3 331 350 330
3 332 351 331
3 333 352 332
3 334 353 333
3 335 354 334
3 336 355 335
3 338 356 336
3 357 358 338
3 340 359 339
3 341 360 340
3 342 361 341
3 343 362 342
3 344 363 343
3 345 364 344
3 346 365 345
3 347 366 346
3 348 367 347
3 349 368 348
3 350 369 349
3 351 370 350
3 352 371 351
3 353 372 352
3 354 373 353
3 355 374 354
3 356 375 355
3 358 376 356
3 377 378 358
3 360 379 359
3 361 380 360
3 362 381 361
3 363 382 362
3 364 383 363
3 365 384 364
3 366 385 365
3 367 386 366
3 368 387 367
3 369 388 368
3 370 389 369
3 371 390 370
3 372 391 371
3 373 392 372
3 374 393 373
3 375 394 374
3 376 395 375
3 378 396 376
3 397 398 378
3 0 4 1
3 3 6 4
3 5 8 6
3 7 10 8
3 9 12 10
3 11 14 12
3 13 16 14
3 15 18 16
3 17 20 18
3 19 22 20
3 21 24 22
3 23 26 24
3 25 28 26
3 27 30 28
3 29 32 30
3 31 34 32
3 33 36 34
3 35 38 36
3 37 57 38
3 4 40 39
3 6 41 40
3 8 42 41
3 10 43 42
3 12 44 43
3 14 45 44
3 16 46 45
3 18 47 46
3 20 48 47
3 22 49 48
3 24 50 49
3 26 51 50
3 28 52 51
3 30 53 52
3 32 54 53
3 34 55 54
3 36 56 55
3 38 58 56
3 57 77 58
3 40 60 59
3 41 61 60
3 42 62 61
3 43 63 62
3 44 64 63
3 45 65 64
3 46 66 65
3 47 67 66
3 48 68 67
3 49 69 68
3 50 70 69
3 51 71 70
3 52 72 71
3 53 73 72
3 54 74 73
3 55 75 74
3 56 76 75
3 58 78 76
3 77 97 78
3 60 80 79
3 61 81 80
3 62 82 81
3 63 83 82
3 64 84 83
3 65 85 84
3 66 86 85
3 67 87 86
3 68 88 87
3 69 89 88
3 70 90 89
3 71 91 90
3 72 92 91
3 73 93 92
3 74 94 93
3 75 95 94
3 76 96 95
3 78 98 96
3 97 117 98
3 80 100 99
3 81 101 100
3 82 102 101
3 83 103 102
3 84 104 103
3 85 105 104
3 86 106 105
3 87 107 106
3 88 108 107
3 89 109 108
3 90 110 109
3 91 111 110
3 92 112 111
3 93 113 112
3 94 114 113
3 95 115 114
3 96 116 115
3 98 118 116
3 117 137 118
3 100 120 119
3 101 121 120
3 102 122 121
3 103 123 122
3 104 124 123
3 105 125 124
3 106 126 125
3 107 127 126
3 108 128 127
3 109 129 128
3 110 130 129
3 111 131 130
3 112 132 131
3 113 133 132
3 114 134 133
3 115 135 134
3 116 136 135
3 118 138 136
3 137 157 138
3 120 140 139
3 121 141 140
3 122 142 141
3 123 143 142
3 124 144 143
3 125 145 144
3 126 146 145
3 127 147 146
3 128 148 147
3 129 149 148
3 130 150 149
3 131 151 150
3 132 152 151
3 133 153 152
3 134 154 153
3 135 155 154
3 136 156 155
3 138 158 156
3 157 177 158
3 140 160 159
3 141 161 160
3 142 162 161
3 143 163 162
3 144 164 163
3 145 165 164
3 146 166 165
3 147 167 166
3 148 168 167
3 149 169 168
3 150 170 169
3 151 171 170
3 152 172 171
3 153 173 172
3 154 174 173
3 155 175 174
3 156 176 175
3 158 178 176
3 177 197 178
3 160 180 179
3 161 181 180
3 162 182 181
3 163 183 182
3 164 184 183
3 165 185 184
3 166 186 185
3 167 187 186
3 168 188 187
3 169 189 188
3 170 190 189
3 171 191 190
3 172 192 191
3 173 193 192
3 174 194 193
3 175 195 194
3 176 196 195
3 178 198 196
3 197 217 198
3 180 200 199
3 181 201 200
3 182 202 201
3 183 203 202
3 184 204 203
3 185 205 204
3 186 206 205
3 187 207 206
3 188 208 207
3 189 209 208
3 190 210 209
3 191 211 210
3 192 212 211
3 193 213 212
3 194 214 213
3 195 215 214
3 196 216 215
3 198 218 216
3 217 237 218
3 200 220 219
3 201 221 220
3 202 222 221
3 203 223 222
3 204 224 223
3 205 225 224
3 206 226 225
3 207 227 226
3 208 228 227
3 209 229 228
3 210 230 229
3 211 231 230
3 212 232 231
3 213 233 232
3 214 234 233
3 215 235 234
3 216 236 235
3 218 238 236
3 237 257 238
3 220 240 239
3 221 241 240
3 222 242 241
3 223 243 242
3 224 244 243
3 225 245 244
3 226 246 245
3 227 247 246
3 228 248 247
3 229 249 248
3 230 250 249
3 231 251 250
3 232 252 251
3 233 253 252
3 234 254 253
3 235 255 254
3 236 256 255
3 238 258 256
3 257 277 258
3 240 260 259
3 241 261 260
3 242 262 261
3 243 263 262
3 244 264 263
3 245 265 264
3 246 266 265
3 247 267 266
3 248 268 267
3 249 269 268
3 250 270 269
3 251 271 270
3 252 272 271
3 253 273 272
3 254 274 273
3 255 275 274
3 256 276 275
3 258 278 276
3 277 297 278
3 260 280 279
3 261 281 280
3 262 282 281
3 263 283 282
3 264 284 283
3 265 285 284
3 266 286 285
3 267 287 286
3 268 288 287
3 269 289 288
3 270 290 289
3 271 291 290
3 272 292 291
3 273 293 292
3 274 294 293
3 275 295 294
3 276 296 295
3 278 298 296
3 297 317 298
3 280 300 299
3 281 301 300
3 282 302 301
3 283 303 302
3 284 304 303
3 285 305 304
3 286 306 305
3 287 307 306
3 288 308 307
3 289 309 308
3 290 310 309
3 291 311 310
3 292 312 311
3 293 313 312
3 294 314 313
3 295 315 314
3 296 316 315
3 298 318 316
3 317 337 318
3 300 320 319
3 301 321 320
3 302 322 321
3 303 323 322
3 304 324 323
3 305 325 324
3 306 326 325
3 307 327 326
3 308 328 327
3 309 329 328
3 310 330 329
3 311 331 330
3 312 332 331
3 313 333 332
3 314 334 333
3 315 335 334
3 316 336 335
3 318 338 336
3 337 357 338
3 320 340 339
3 321 341 340
3 322 342 341
3 323 343 342
3 324 344 343
3 325 345 344
3 326 346 345
3 327 347 346
3 328 348 347
3 329 349 348
3 330 350 349
3 331 351 350
3 332 352 351
3 333 353 352
3 334 354 353
3 335 355 354
3 336 356 355
3 338 358 356
3 357 377 358
3 340 360 359
3 341 361 360
3 342 362 361
3 343 363 362
3 344 364 363
3 345 365 364
3 346 366 365
3 347 367 366
3 348 368 367
3 349 369 368
3 350 370 369
3 351 371 370
3 352 372 371
3 353 373 372
3 354 374 373
3 355 375 374
3 356 376 375
3 358 378 376
3 377 397 378
3 360 380 379
3 361 381 380
3 362 382 381
3 363 383 382
3 364 384 383
3 365 385 384
3 366 386 385
3 367 387 386
3 368 388 387
3 369 389 388
3 370 390 389
3 371 391 390
3 372 392 391
3 373 393 392
3 374 394 393
3 375 395 394
3 376 396 395
3 378 398 396
3 397 399 398
