ply
format ascii 1.0
comment Created by Blender 2.77 (sub 0) - www.blender.org, source file: ''
element vertex 400
property float x
property float y
property float z
property float nx
property float ny
property float nz
element face 361
property list uchar uint vertex_indices
end_header
-1.000000 -1.000000 0.000000 0.000000 0.000000 1.000000
-0.894737 -1.000000 0.000000 0.000000 0.000000 1.000000
-0.894737 -0.894737 0.000000 0.000000 0.000000 1.000000
-1.000000 -0.894737 0.000000 0.000000 0.000000 1.000000
-0.789474 -1.000000 0.000000 0.000000 0.000000 1.000000
-0.789474 -0.894737 0.000000 0.000000 0.000000 1.000000
-0.684211 -1.000000 0.000000 0.000000 0.000000 1.000000
-0.684211 -0.894737 0.000000 0.000000 0.000000 1.000000
-0.578947 -1.000000 0.000000 0.000000 0.000000 1.000000
-0.578947 -0.894737 0.000000 0.000000 0.000000 1.000000
-0.473684 -1.000000 0.000000 0.000000 0.000000 1.000000
-0.473684 -0.894737 0.000000 0.000000 0.000000 1.000000
-0.368421 -1.000000 0.000000 0.000000 0.000000 1.000000
-0.368421 -0.894737 0.000000 0.000000 0.000000 1.000000
-0.263158 -1.000000 0.000000 0.000000 0.000000 1.000000
-0.263158 -0.894737 0.000000 0.000000 0.000000 1.000000
-0.157895 -1.000000 0.000000 0.000000 0.000000 1.000000
-0.157895 -0.894737 0.000000 0.000000 0.000000 1.000000
-0.052632 -1.000000 0.000000 0.000000 0.000000 1.000000
-0.052632 -0.894737 0.000000 0.000000 0.000000 1.000000
0.052632 -1.000000 0.000000 0.000000 0.000000 1.000000
0.052632 -0.894737 0.000000 0.000000 0.000000 1.000000
0.157895 -1.000000 0.000000 0.000000 0.000000 1.000000
0.157895 -0.894737 0.000000 0.000000 0.000000 1.000000
0.263158 -1.000000 0.000000 0.000000 0.000000 1.000000
0.263158 -0.894737 0.000000 0.000000 0.000000 1.000000
0.368421 -1.000000 0.000000 0.000000 0.000000 1.000000
0.368421 -0.894737 0.000000 0.000000 0.000000 1.000000
0.473684 -1.000000 0.000000 0.000000 0.000000 1.000000
0.473684 -0.894737 0.000000 0.000000 0.000000 1.000000
0.578947 -1.000000 0.000000 0.000000 0.000000 1.000000
0.578947 -0.894737 0.000000 0.000000 0.000000 1.000000
0.684211 -1.000000 0.000000 0.000000 0.000000 1.000000
0.684211 -0.894737 0.000000 0.000000 0.000000 1.000000
0.789474 -1.000000 0.000000 0.000000 0.000000 1.000000
0.789474 -0.894737 0.000000 0.000000 0.000000 1.000000
0.894737 -1.000000 0.000000 0.000000 0.000000 1.000000
0.894737 -0.894737 0.000000 0.000000 0.000000 1.000000
1.000000 -1.000000 0.000000 0.000000 0.000000 1.000000
1.000000 -0.894737 0.000000 0.000000 0.000000 1.000000
-0.894737 -0.789474 0.000000 0.000000 0.000000 1.000000
-1.000000 -0.789474 0.000000 0.000000 0.000000 1.000000
-0.789474 -0.789474 0.000000 0.000000 0.000000 1.000000
-0.684211 -0.789474 0.000000 0.000000 0.000000 1.000000
-0.578947 -0.789474 0.000000 0.000000 0.000000 1.000000
-0.473684 -0.789474 0.000000 0.000000 0.000000 1.000000
-0.368421 -0.789474 0.000000 0.000000 0.000000 1.000000
-0.263158 -0.789474 0.000000 0.000000 0.000000 1.000000
-0.157895 -0.789474 0.000000 0.000000 0.000000 1.000000
-0.052632 -0.789474 0.000000 0.000000 0.000000 1.000000
0.052632 -0.789474 0.000000 0.000000 0.000000 1.000000
0.157895 -0.789474 0.000000 0.000000 0.000000 1.000000
0.263158 -0.789474 0.000000 0.000000 0.000000 1.000000
0.368421 -0.789474 0.000000 0.000000 0.000000 1.000000
0.473684 -0.789474 0.000000 0.000000 0.000000 1.000000
0.578947 -0.789474 0.000000 0.000000 0.000000 1.000000
0.684211 -0.789474 0.000000 0.000000 0.000000 1.000000
0.789474 -0.789474 0.000000 0.000000 0.000000 1.000000
0.894737 -0.789474 0.000000 0.000000 0.000000 1.000000
1.000000 -0.789474 0.000000 0.000000 0.000000 1.000000
-0.894737 -0.684211 0.000000 0.000000 0.000000 1.000000
-1.000000 -0.684211 0.000000 0.000000 0.000000 1.000000
-0.789474 -0.684211 0.000000 0.000000 0.000000 1.000000
-0.684211 -0.684211 0.000000 0.000000 0.000000 1.000000
-0.578947 -0.684211 0.000000 0.000000 0.000000 1.000000
-0.473684 -0.684211 0.000000 0.000000 0.000000 1.000000
-0.368421 -0.684211 0.000000 0.000000 0.000000 1.000000
-0.263158 -0.684211 0.000000 0.000000 0.000000 1.000000
-0.157895 -0.684211 0.000000 0.000000 0.000000 1.000000
-0.052632 -0.684211 0.000000 0.000000 0.000000 1.000000
0.052632 -0.684211 0.000000 0.000000 0.000000 1.000000
0.157895 -0.684211 0.000000 0.000000 0.000000 1.000000
0.263158 -0.684211 0.000000 0.000000 0.000000 1.000000
0.368421 -0.684211 0.000000 0.000000 0.000000 1.000000
0.473684 -0.684211 0.000000 0.000000 0.000000 1.000000
0.578947 -0.684211 0.000000 0.000000 0.000000 1.000000
0.684211 -0.684211 0.000000 0.000000 0.000000 1.000000
0.789474 -0.684211 0.000000 0.000000 0.000000 1.000000
0.894737 -0.684211 0.000000 0.000000 0.000000 1.000000
1.000000 -0.684211 0.000000 0.000000 0.000000 1.000000
-0.894737 -0.578947 0.000000 0.000000 0.000000 1.000000
-1.000000 -0.578947 0.000000 0.000000 0.000000 1.000000
-0.789474 -0.578947 0.000000 0.000000 0.000000 1.000000
-0.684211 -0.578947 0.000000 0.000000 0.000000 1.000000
-0.578947 -0.578947 0.000000 0.000000 0.000000 1.000000
-0.473684 -0.578947 0.000000 0.000000 0.000000 1.000000
-0.368421 -0.578947 0.000000 0.000000 0.000000 1.000000
-0.263158 -0.578947 0.000000 0.000000 0.000000 1.000000
-0.157895 -0.578947 0.000000 0.000000 0.000000 1.000000
-0.052632 -0.578947 0.000000 0.000000 0.000000 1.000000
0.052632 -0.578947 0.000000 0.000000 0.000000 1.000000
0.157895 -0.578947 0.000000 0.000000 0.000000 1.000000
0.263158 -0.578947 0.000000 0.000000 0.000000 1.000000
0.368421 -0.578947 0.000000 0.000000 0.000000 1.000000
0.473684 -0.578947 0.000000 0.000000 0.000000 1.000000
0.578947 -0.578947 0.000000 0.000000 0.000000 1.000000
0.684211 -0.578947 0.000000 0.000000 0.000000 1.000000
0.789474 -0.578947 0.000000 0.000000 0.000000 1.000000
0.894737 -0.578947 0.000000 0.000000 0.000000 1.000000
1.000000 -0.578947 0.000000 0.000000 0.000000 1.000000
-0.894737 -0.473684 0.000000 0.000000 0.000000 1.000000
-1.000000 -0.473684 0.000000 0.000000 0.000000 1.000000
-0.789474 -0.473684 0.000000 0.000000 0.000000 1.000000
-0.684211 -0.473684 0.000000 0.000000 0.000000 1.000000
-0.578947 -0.473684 0.000000 0.000000 0.000000 1.000000
-0.473684 -0.473684 0.000000 0.000000 0.000000 1.000000
-0.368421 -0.473684 0.000000 0.000000 0.000000 1.000000
-0.263158 -0.473684 0.000000 0.000000 0.000000 1.000000
-0.157895 -0.473684 0.000000 0.000000 0.000000 1.000000
-0.052632 -0.473684 0.000000 0.000000 0.000000 1.000000
0.052632 -0.473684 0.000000 0.000000 0.000000 1.000000
0.157895 -0.473684 0.000000 0.000000 0.000000 1.000000
0.263158 -0.473684 0.000000 0.000000 0.000000 1.000000
0.368421 -0.473684 0.000000 0.000000 0.000000 1.000000
0.473684 -0.473684 0.000000 0.000000 0.000000 1.000000
0.578947 -0.473684 0.000000 0.000000 0.000000 1.000000
0.684211 -0.473684 0.000000 0.000000 0.000000 1.000000
0.789474 -0.473684 0.000000 0.000000 0.000000 1.000000
0.894737 -0.473684 0.000000 0.000000 0.000000 1.000000
1.000000 -0.473684 0.000000 0.000000 0.000000 1.000000
-0.894737 -0.368421 0.000000 0.000000 0.000000 1.000000
-1.000000 -0.368421 0.000000 0.000000 0.000000 1.000000
-0.789474 -0.368421 0.000000 0.000000 0.000000 1.000000
-0.684211 -0.368421 0.000000 0.000000 0.000000 1.000000
-0.578947 -0.368421 0.000000 0.000000 0.000000 1.000000
-0.473684 -0.368421 0.000000 0.000000 0.000000 1.000000
-0.368421 -0.368421 0.000000 0.000000 0.000000 1.000000
-0.263158 -0.368421 0.000000 0.000000 0.000000 1.000000
-0.157895 -0.368421 0.000000 0.000000 0.000000 1.000000
-0.052632 -0.368421 0.000000 0.000000 0.000000 1.000000
0.052632 -0.368421 0.000000 0.000000 0.000000 1.000000
0.157895 -0.368421 0.000000 0.000000 0.000000 1.000000
0.263158 -0.368421 0.000000 0.000000 0.000000 1.000000
0.368421 -0.368421 0.000000 0.000000 0.000000 1.000000
0.473684 -0.368421 0.000000 0.000000 0.000000 1.000000
0.578947 -0.368421 0.000000 0.000000 0.000000 1.000000
0.684211 -0.368421 0.000000 0.000000 0.000000 1.000000
0.789474 -0.368421 0.000000 0.000000 0.000000 1.000000
0.894737 -0.368421 0.000000 0.000000 0.000000 1.000000
1.000000 -0.368421 0.000000 0.000000 0.000000 1.000000
-0.894737 -0.263158 0.000000 0.000000 0.000000 1.000000
-1.000000 -0.263158 0.000000 0.000000 0.000000 1.000000
-0.789474 -0.263158 0.000000 0.000000 0.000000 1.000000
-0.684211 -0.263158 0.000000 0.000000 0.000000 1.000000
-0.578947 -0.263158 0.000000 0.000000 0.000000 1.000000
-0.473684 -0.263158 0.000000 0.000000 0.000000 1.000000
-0.368421 -0.263158 0.000000 0.000000 0.000000 1.000000
-0.263158 -0.263158 0.000000 0.000000 0.000000 1.000000
-0.157895 -0.263158 0.000000 0.000000 0.000000 1.000000
-0.052632 -0.263158 0.000000 0.000000 0.000000 1.000000
0.052632 -0.263158 0.000000 0.000000 0.000000 1.000000
0.157895 -0.263158 0.000000 0.000000 0.000000 1.000000
0.263158 -0.263158 0.000000 0.000000 0.000000 1.000000
0.368421 -0.263158 0.000000 0.000000 0.000000 1.000000
0.473684 -0.263158 0.000000 0.000000 0.000000 1.000000
0.578947 -0.263158 0.000000 0.000000 0.000000 1.000000
0.684211 -0.263158 0.000000 0.000000 0.000000 1.000000
0.789474 -0.263158 0.000000 0.000000 0.000000 1.000000
0.894737 -0.263158 0.000000 0.000000 0.000000 1.000000
1.000000 -0.263158 0.000000 0.000000 0.000000 1.000000
-0.894737 -0.157895 0.000000 0.000000 0.000000 1.000000
-1.000000 -0.157895 0.000000 0.000000 0.000000 1.000000
-0.789474 -0.157895 0.000000 0.000000 0.000000 1.000000
-0.684211 -0.157895 0.000000 0.000000 0.000000 1.000000
-0.578947 -0.157895 0.000000 0.000000 0.000000 1.000000
-0.473684 -0.157895 0.000000 0.000000 0.000000 1.000000
-0.368421 -0.157895 0.000000 0.000000 0.000000 1.000000
-0.263158 -0.157895 0.000000 0.000000 0.000000 1.000000
-0.157895 -0.157895 0.000000 0.000000 0.000000 1.000000
-0.052632 -0.157895 0.000000 0.000000 0.000000 1.000000
0.052632 -0.157895 0.000000 0.000000 0.000000 1.000000
0.157895 -0.157895 0.000000 0.000000 0.000000 1.000000
0.263158 -0.157895 0.000000 0.000000 0.000000 1.000000
0.368421 -0.157895 0.000000 0.000000 0.000000 1.000000
0.473684 -0.157895 0.000000 0.000000 0.000000 1.000000
0.578947 -0.157895 0.000000 0.000000 0.000000 1.000000
0.684211 -0.157895 0.000000 0.000000 0.000000 1.000000
0.789474 -0.157895 0.000000 0.000000 0.000000 1.000000
0.894737 -0.157895 0.000000 0.000000 0.000000 1.000000
1.000000 -0.157895 0.000000 0.000000 0.000000 1.000000
-0.894737 -0.052632 0.000000 0.000000 0.000000 1.000000
-1.000000 -0.052632 0.000000 0.000000 0.000000 1.000000
-0.789474 -0.052632 0.000000 0.000000 0.000000 1.000000
-0.684211 -0.052632 0.000000 0.000000 0.000000 1.000000
-0.578947 -0.052632 0.000000 0.000000 0.000000 1.000000
-0.473684 -0.052632 0.000000 0.000000 0.000000 1.000000
-0.368421 -0.052632 0.000000 0.000000 0.000000 1.000000
-0.263158 -0.052632 0.000000 0.000000 0.000000 1.000000
-0.157895 -0.052632 0.000000 0.000000 0.000000 1.000000
-0.052632 -0.052632 0.000000 0.000000 0.000000 1.000000
0.052632 -0.052632 0.000000 0.000000 0.000000 1.000000
0.157895 -0.052632 0.000000 0.000000 0.000000 1.000000
0.263158 -0.052632 0.000000 0.000000 0.000000 1.000000
0.368421 -0.052632 0.000000 0.000000 0.000000 1.000000
0.473684 -0.052632 0.000000 0.000000 0.000000 1.000000
0.578947 -0.052632 0.000000 0.000000 0.000000 1.000000
0.684211 -0.052632 0.000000 0.000000 0.000000 1.000000
0.789474 -0.052632 0.000000 0.000000 0.000000 1.000000
0.894737 -0.052632 0.000000 0.000000 0.000000 1.000000
1.000000 -0.052632 0.000000 0.000000 0.000000 1.000000
-0.894737 0.052632 0.000000 0.000000 0.000000 1.000000
-1.000000 0.052632 0.000000 0.000000 0.000000 1.000000
-0.789474 0.052632 0.000000 0.000000 0.000000 1.000000
-0.684211 0.052632 0.000000 0.000000 0.000000 1.000000
-0.578947 0.052632 0.000000 0.000000 0.000000 1.000000
-0.473684 0.052632 0.000000 0.000000 0.000000 1.000000
-0.368421 0.052632 0.000000 0.000000 0.000000 1.000000
-0.263158 0.052632 0.000000 0.000000 0.000000 1.000000
-0.157895 0.052632 0.000000 0.000000 0.000000 1.000000
-0.052632 0.052632 0.000000 0.000000 0.000000 1.000000
0.052632 0.052632 0.000000 0.000000 0.000000 1.000000
0.157895 0.052632 0.000000 0.000000 0.000000 1.000000
0.263158 0.052632 0.000000 0.000000 0.000000 1.000000
0.368421 0.052632 0.000000 0.000000 0.000000 1.000000
0.473684 0.052632 0.000000 0.000000 0.000000 1.000000
0.578947 0.052632 0.000000 0.000000 0.000000 1.000000
0.684211 0.052632 0.000000 0.000000 0.000000 1.000000
0.789474 0.052632 0.000000 0.000000 0.000000 1.000000
0.894737 0.052632 0.000000 0.000000 0.000000 1.000000
1.000000 0.052632 0.000000 0.000000 0.000000 1.000000
-0.894737 0.157895 0.000000 0.000000 0.000000 1.000000
-1.000000 0.157895 0.000000 0.000000 0.000000 1.000000
-0.789474 0.157895 0.000000 0.000000 0.000000 1.000000
-0.684211 0.157895 0.000000 0.000000 0.000000 1.000000
-0.578947 0.157895 0.000000 0.000000 0.000000 1.000000
-0.473684 0.157895 0.000000 0.000000 0.000000 1.000000
-0.368421 0.157895 0.000000 0.000000 0.000000 1.000000
-0.263158 0.157895 0.000000 0.000000 0.000000 1.000000
-0.157895 0.157895 0.000000 0.000000 0.000000 1.000000
-0.052632 0.157895 0.000000 0.000000 0.000000 1.000000
0.052632 0.157895 0.000000 0.000000 0.000000 1.000000
0.157895 0.157895 0.000000 0.000000 0.000000 1.000000
0.263158 0.157895 0.000000 0.000000 0.000000 1.000000
0.368421 0.157895 0.000000 0.000000 0.000000 1.000000
0.473684 0.157895 0.000000 0.000000 0.000000 1.000000
0.578947 0.157895 0.000000 0.000000 0.000000 1.000000
0.684211 0.157895 0.000000 0.000000 0.000000 1.000000
0.789474 0.157895 0.000000 0.000000 0.000000 1.000000
0.894737 0.157895 0.000000 0.000000 0.000000 1.000000
1.000000 0.157895 0.000000 0.000000 0.000000 1.000000
-0.894737 0.263158 0.000000 0.000000 0.000000 1.000000
-1.000000 0.263158 0.000000 0.000000 0.000000 1.000000
-0.789474 0.263158 0.000000 0.000000 0.000000 1.000000
-0.684211 0.263158 0.000000 0.000000 0.000000 1.000000
-0.578947 0.263158 0.000000 0.000000 0.000000 1.000000
-0.473684 0.263158 0.000000 0.000000 0.000000 1.000000
-0.368421 0.263158 0.000000 0.000000 0.000000 1.000000
-0.263158 0.263158 0.000000 0.000000 0.000000 1.000000
-0.157895 0.263158 0.000000 0.000000 0.000000 1.000000
-0.052632 0.263158 0.000000 0.000000 0.000000 1.000000
0.052632 0.263158 0.000000 0.000000 0.000000 1.000000
0.157895 0.263158 0.000000 0.000000 0.000000 1.000000
0.263158 0.263158 0.000000 0.000000 0.000000 1.000000
0.368421 0.263158 0.000000 0.000000 0.000000 1.000000
0.473684 0.263158 0.000000 0.000000 0.000000 1.000000
0.578947 0.263158 0.000000 0.000000 0.000000 1.000000
0.684211 0.263158 0.000000 0.000000 0.000000 1.000000
0.789474 0.263158 0.000000 0.000000 0.000000 1.000000
0.894737 0.263158 0.000000 0.000000 0.000000 1.000000
1.000000 0.263158 0.000000 0.000000 0.000000 1.000000
-0.894737 0.368421 0.000000 0.000000 0.000000 1.000000
-1.000000 0.368421 0.000000 0.000000 0.000000 1.000000
-0.789474 0.368421 0.000000 0.000000 0.000000 1.000000
-0.684211 0.368421 0.000000 0.000000 0.000000 1.000000
-0.578947 0.368421 0.000000 0.000000 0.000000 1.000000
-0.473684 0.368421 0.000000 0.000000 0.000000 1.000000
-0.368421 0.368421 0.000000 0.000000 0.000000 1.000000
-0.263158 0.368421 0.000000 0.000000 0.000000 1.000000
-0.157895 0.368421 0.000000 0.000000 0.000000 1.000000
-0.052632 0.368421 0.000000 0.000000 0.000000 1.000000
0.052632 0.368421 0.000000 0.000000 0.000000 1.000000
0.157895 0.368421 0.000000 0.000000 0.000000 1.000000
0.263158 0.368421 0.000000 0.000000 0.000000 1.000000
0.368421 0.368421 0.000000 0.000000 0.000000 1.000000
0.473684 0.368421 0.000000 0.000000 0.000000 1.000000
0.578947 0.368421 0.000000 0.000000 0.000000 1.000000
0.684211 0.368421 0.000000 0.000000 0.000000 1.000000
0.789474 0.368421 0.000000 0.000000 0.000000 1.000000
0.894737 0.368421 0.000000 0.000000 0.000000 1.000000
1.000000 0.368421 0.000000 0.000000 0.000000 1.000000
-0.894737 0.473684 0.000000 0.000000 0.000000 1.000000
-1.000000 0.473684 0.000000 0.000000 0.000000 1.000000
-0.789474 0.473684 0.000000 0.000000 0.000000 1.000000
-0.684211 0.473684 0.000000 0.000000 0.000000 1.000000
-0.578947 0.473684 0.000000 0.000000 0.000000 1.000000
-0.473684 0.473684 0.000000 0.000000 0.000000 1.000000
-0.368421 0.473684 0.000000 0.000000 0.000000 1.000000
-0.263158 0.473684 0.000000 0.000000 0.000000 1.000000
-0.157895 0.473684 0.000000 0.000000 0.000000 1.000000
-0.052632 0.473684 0.000000 0.000000 0.000000 1.000000
0.052632 0.473684 0.000000 0.000000 0.000000 1.000000
0.157895 0.473684 0.000000 0.000000 0.000000 1.000000
0.263158 0.473684 0.000000 0.000000 0.000000 1.000000
0.368421 0.473684 0.000000 0.000000 0.000000 1.000000
0.473684 0.473684 0.000000 0.000000 0.000000 1.000000
0.578947 0.473684 0.000000 0.000000 0.000000 1.000000
0.684211 0.473684 0.000000 0.000000 0.000000 1.000000
0.789474 0.473684 0.000000 0.000000 0.000000 1.000000
0.894737 0.473684 0.000000 0.000000 0.000000 1.000000
1.000000 0.473684 0.000000 0.000000 0.000000 1.000000
-0.894737 0.578947 0.000000 0.000000 0.000000 1.000000
-1.000000 0.578947 0.000000 0.000000 0.000000 1.000000
-0.789474 0.578947 0.000000 0.000000 0.000000 1.000000
-0.684211 0.578947 0.000000 0.000000 0.000000 1.000000
-0.578947 0.578947 0.000000 0.000000 0.000000 1.000000
-0.473684 0.578947 0.000000 0.000000 0.000000 1.000000
-0.368421 0.578947 0.000000 0.000000 0.000000 1.000000
-0.263158 0.578947 0.000000 0.000000 0.000000 1.000000
-0.157895 0.578947 0.000000 0.000000 0.000000 1.000000
-0.052632 0.578947 0.000000 0.000000 0.000000 1.000000
0.052632 0.578947 0.000000 0.000000 0.000000 1.000000
0.157895 0.578947 0.000000 0.000000 0.000000 1.000000
0.263158 0.578947 0.000000 0.000000 0.000000 1.000000
0.368421 0.578947 0.000000 0.000000 0.000000 1.000000
0.473684 0.578947 0.000000 0.000000 0.000000 1.000000
0.578947 0.578947 0.000000 0.000000 0.000000 1.000000
0.684211 0.578947 0.000000 0.000000 0.000000 1.000000
0.789474 0.578947 0.000000 0.000000 0.000000 1.000000
0.894737 0.578947 0.000000 0.000000 0.000000 1.000000
1.000000 0.578947 0.000000 0.000000 0.000000 1.000000
-0.894737 0.684211 0.000000 0.000000 0.000000 1.000000
-1.000000 0.684211 0.000000 0.000000 0.000000 1.000000
-0.789474 0.684211 0.000000 0.000000 0.000000 1.000000
-0.684211 0.684211 0.000000 0.000000 0.000000 1.000000
-0.578947 0.684211 0.000000 0.000000 0.000000 1.000000
-0.473684 0.684211 0.000000 0.000000 0.000000 1.000000
-0.368421 0.684211 0.000000 0.000000 0.000000 1.000000
-0.263158 0.684211 0.000000 0.000000 0.000000 1.000000
-0.157895 0.684211 0.000000 0.000000 0.000000 1.000000
-0.052632 0.684211 0.000000 0.000000 0.000000 1.000000
0.052632 0.684211 0.000000 0.000000 0.000000 1.000000
0.157895 0.684211 0.000000 0.000000 0.000000 1.000000
0.263158 0.684211 0.000000 0.000000 0.000000 1.000000
0.368421 0.684211 0.000000 0.000000 0.000000 1.000000
0.473684 0.684211 0.000000 0.000000 0.000000 1.000000
0.578947 0.684211 0.000000 0.000000 0.000000 1.000000
0.684211 0.684211 0.000000 0.000000 0.000000 1.000000
0.789474 0.684211 0.000000 0.000000 0.000000 1.000000
0.894737 0.684211 0.000000 0.000000 0.000000 1.000000
1.000000 0.684211 0.000000 0.000000 0.000000 1.000000
-0.894737 0.789474 0.000000 0.000000 0.000000 1.000000
-1.000000 0.789474 0.000000 0.000000 0.000000 1.000000
-0.789474 0.789474 0.000000 0.000000 0.000000 1.000000
-0.684211 0.789474 0.000000 0.000000 0.000000 1.000000
-0.578947 0.789474 0.000000 0.000000 0.000000 1.000000
-0.473684 0.789474 0.000000 0.000000 0.000000 1.000000
-0.368421 0.789474 0.000000 0.000000 0.000000 1.000000
-0.263158 0.789474 0.000000 0.000000 0.000000 1.000000
-0.157895 0.789474 0.000000 0.000000 0.000000 1.000000
-0.052632 0.789474 0.000000 0.000000 0.000000 1.000000
0.052632 0.789474 0.000000 0.000000 0.000000 1.000000
0.157895 0.789474 0.000000 0.000000 0.000000 1.000000
0.263158 0.789474 0.000000 0.000000 0.000000 1.000000
0.368421 0.789474 0.000000 0.000000 0.000000 1.000000
0.473684 0.789474 0.000000 0.000000 0.000000 1.000000
0.578947 0.789474 0.000000 0.000000 0.000000 1.000000
0.684211 0.789474 0.000000 0.000000 0.000000 1.000000
0.789474 0.789474 0.000000 0.000000 0.000000 1.000000
0.894737 0.789474 0.000000 0.000000 0.000000 1.000000
1.000000 0.789474 0.000000 0.000000 0.000000 1.000000
-0.894737 0.894737 0.000000 0.000000 0.000000 1.000000
-1.000000 0.894737 0.000000 0.000000 0.000000 1.000000
-0.789474 0.894737 0.000000 0.000000 0.000000 1.000000
-0.684211 0.894737 0.000000 0.000000 0.000000 1.000000
-0.578947 0.894737 0.000000 0.000000 0.000000 1.000000
-0.473684 0.894737 0.000000 0.000000 0.000000 1.000000
-0.368421 0.894737 0.000000 0.000000 0.000000 1.000000
-0.263158 0.894737 0.000000 0.000000 0.000000 1.000000
-0.157895 0.894737 0.000000 0.000000 0.000000 1.000000
-0.052632 0.894737 0.000000 0.000000 0.000000 1.000000
0.052632 0.894737 0.000000 0.000000 0.000000 1.000000
0.157895 0.894737 0.000000 0.000000 0.000000 1.000000
0.263158 0.894737 0.000000 0.000000 0.000000 1.000000
0.368421 0.894737 0.000000 0.000000 0.000000 1.000000
0.473684 0.894737 0.000000 0.000000 0.000000 1.000000
0.578947 0.894737 0.000000 0.000000 0.000000 1.000000
0.684211 0.894737 0.000000 0.000000 0.000000 1.000000
0.789474 0.894737 0.000000 0.000000 0.000000 1.000000
0.894737 0.894737 0.000000 0.000000 0.000000 1.000000
1.000000 0.894737 0.000000 0.000000 0.000000 1.000000
-0.894737 1.000000 0.000000 0.000000 0.000000 1.000000
-1.000000 1.000000 0.000000 0.000000 0.000000 1.000000
-0.789474 1.000000 0.000000 0.000000 0.000000 1.000000
-0.684211 1.000000 0.000000 0.000000 0.000000 1.000000
-0.578947 1.000000 0.000000 0.000000 0.000000 1.000000
-0.473684 1.000000 0.000000 0.000000 0.000000 1.000000
-0.368421 1.000000 0.000000 0.000000 0.000000 1.000000
-0.263158 1.000000 0.000000 0.000000 0.000000 1.000000
-0.157895 1.000000 0.000000 0.000000 0.000000 1.000000
-0.052632 1.000000 0.000000 0.000000 0.000000 1.000000
0.052632 1.000000 0.000000 0.000000 0.000000 1.000000
0.157895 1.000000 0.000000 0.000000 0.000000 1.000000
0.263158 1.000000 0.000000 0.000000 0.000000 1.000000
0.368421 1.000000 0.000000 0.000000 0.000000 1.000000
0.473684 1.000000 0.000000 0.000000 0.000000 1.000000
0.578947 1.000000 0.000000 0.000000 0.000000 1.000000
0.684211 1.000000 0.000000 0.000000 0.000000 1.000000
0.789474 1.000000 0.000000 0.000000 0.000000 1.000000
0.894737 1.000000 0.000000 0.000000 0.000000 1.000000
1.000000 1.000000 0.000000 0.000000 0.000000 1.000000
4 0 1 2 3
4 1 4 5 2
4 4 6 7 5
4 6 8 9 7
4 8 10 11 9
4 10 12 13 11
4 12 14 15 13
4 14 16 17 15
4 16 18 19 17
4 18 20 21 19
4 20 22 23 21
4 22 24 25 23
4 24 26 27 25
4 26 28 29 27
4 28 30 31 29
4 30 32 33 31
4 32 34 35 33
4 34 36 37 35
4 36 38 39 37
4 3 2 40 41
4 2 5 42 40
4 5 7 43 42
4 7 9 44 43
4 9 11 45 44
4 11 13 46 45
4 13 15 47 46
4 15 17 48 47
4 17 19 49 48
4 19 21 50 49
4 21 23 51 50
4 23 25 52 51
4 25 27 53 52
4 27 29 54 53
4 29 31 55 54
4 31 33 56 55
4 33 35 57 56
4 35 37 58 57
4 37 39 59 58
4 41 40 60 61
4 40 42 62 60
4 42 43 63 62
4 43 44 64 63
4 44 45 65 64
4 45 46 66 65
4 46 47 67 66
4 47 48 68 67
4 48 49 69 68
4 49 50 70 69
4 50 51 71 70
4 51 52 72 71
4 52 53 73 72
4 53 54 74 73
4 54 55 75 74
4 55 56 76 75
4 56 57 77 76
4 57 58 78 77
4 58 59 79 78
4 61 60 80 81
4 60 62 82 80
4 62 63 83 82
4 63 64 84 83
4 64 65 85 84
4 65 66 86 85
4 66 67 87 86
4 67 68 88 87
4 68 69 89 88
4 69 70 90 89
4 70 71 91 90
4 71 72 92 91
4 72 73 93 92
4 73 74 94 93
4 74 75 95 94
4 75 76 96 95
4 76 77 97 96
4 77 78 98 97
4 78 79 99 98
4 81 80 100 101
4 80 82 102 100
4 82 83 103 102
4 83 84 104 103
4 84 85 105 104
4 85 86 106 105
4 86 87 107 106
4 87 88 108 107
4 88 89 109 108
4 89 90 110 109
4 90 91 111 110
4 91 92 112 111
4 92 93 113 112
4 93 94 114 113
4 94 95 115 114
4 95 96 116 115
4 96 97 117 116
4 97 98 118 117
4 98 99 119 118
4 101 100 120 121
4 100 102 122 120
4 102 103 123 122
4 103 104 124 123
4 104 105 125 124
4 105 106 126 125
4 106 107 127 126
4 107 108 128 127
4 108 109 129 128
4 109 110 130 129
4 110 111 131 130
4 111 112 132 131
4 112 113 133 132
4 113 114 134 133
4 114 115 135 134
4 115 116 136 135
4 116 117 137 136
4 117 118 138 137
4 118 119 139 138
4 121 120 140 141
4 120 122 142 140
4 122 123 143 142
4 123 124 144 143
4 124 125 145 144
4 125 126 146 145
4 126 127 147 146
4 127 128 148 147
4 128 129 149 148
4 129 130 150 149
4 130 131 151 150
4 131 132 152 151
4 132 133 153 152
4 133 134 154 153
4 134 135 155 154
4 135 136 156 155
4 136 137 157 156
4 137 138 158 157
4 138 139 159 158
4 141 140 160 161
4 140 142 162 160
4 142 143 163 162
4 143 144 164 163
4 144 145 165 164
4 145 146 166 165
4 146 147 167 166
4 147 148 168 167
4 148 149 169 168
4 149 150 170 169
4 150 151 171 170
4 151 152 172 171
4 152 153 173 172
4 153 154 174 173
4 154 155 175 174
4 155 156 176 175
4 156 157 177 176
4 157 158 178 177
4 158 159 179 178
4 161 160 180 181
4 160 162 182 180
4 162 163 183 182
4 163 164 184 183
4 164 165 185 184
4 165 166 186 185
4 166 167 187 186
4 167 168 188 187
4 168 169 189 188
4 169 170 190 189
4 170 171 191 190
4 171 172 192 191
4 172 173 193 192
4 173 174 194 193
4 174 175 195 194
4 175 176 196 195
4 176 177 197 196
4 177 178 198 197
4 178 179 199 198
4 181 180 200 201
4 180 182 202 200
4 182 183 203 202
4 183 184 204 203
4 184 185 205 204
4 185 186 206 205
4 186 187 207 206
4 187 188 208 207
4 188 189 209 208
4 189 190 210 209
4 190 191 211 210
4 191 192 212 211
4 192 193 213 212
4 193 194 214 213
4 194 195 215 214
4 195 196 216 215
4 196 197 217 216
4 197 198 218 217
4 198 199 219 218
4 201 200 220 221
4 200 202 222 220
4 202 203 223 222
4 203 204 224 223
4 204 205 225 224
4 205 206 226 225
4 206 207 227 226
4 207 208 228 227
4 208 209 229 228
4 209 210 230 229
4 210 211 231 230
4 211 212 232 231
4 212 213 233 232
4 213 214 234 233
4 214 215 235 234
4 215 216 236 235
4 216 217 237 236
4 217 218 238 237
4 218 219 239 238
4 221 220 240 241
4 220 222 242 240
4 222 223 243 242
4 223 224 244 243
4 224 225 245 244
4 225 226 246 245
4 226 227 247 246
4 227 228 248 247
4 228 229 249 248
4 229 230 250 249
4 230 231 251 250
4 231 232 252 251
4 232 233 253 252
4 233 234 254 253
4 234 235 255 254
4 235 236 256 255
4 236 237 257 256
4 237 238 258 257
4 238 239 259 258
4 241 240 260 261
4 240 242 262 260
4 242 243 263 262
4 243 244 264 263
4 244 245 265 264
4 245 246 266 265
4 246 247 267 266
4 247 248 268 267
4 248 249 269 268
4 249 250 270 269
4 250 251 271 270
4 251 252 272 271
4 252 253 273 272
4 253 254 274 273
4 254 255 275 274
4 255 256 276 275
4 256 257 277 276
4 257 258 278 277
4 258 259 279 278
4 261 260 280 281
4 260 262 282 280
4 262 263 283 282
4 263 264 284 283
4 264 265 285 284
4 265 266 286 285
4 266 267 287 286
4 267 268 288 287
4 268 269 289 288
4 269 270 290 289
4 270 271 291 290
4 271 272 292 291
4 272 273 293 292
4 273 274 294 293
4 274 275 295 294
4 275 276 296 295
4 276 277 297 296
4 277 278 298 297
4 278 279 299 298
4 281 280 300 301
4 280 282 302 300
4 282 283 303 302
4 283 284 304 303
4 284 285 305 304
4 285 286 306 305
4 286 287 307 306
4 287 288 308 307
4 288 289 309 308
4 289 290 310 309
4 290 291 311 310
4 291 292 312 311
4 292 293 313 312
4 293 294 314 313
4 294 295 315 314
4 295 296 316 315
4 296 297 317 316
4 297 298 318 317
4 298 299 319 318
4 301 300 320 321
4 300 302 322 320
4 302 303 323 322
4 303 304 324 323
4 304 305 325 324
4 305 306 326 325
4 306 307 327 326
4 307 308 328 327
4 308 309 329 328
4 309 310 330 329
4 310 311 331 330
4 311 312 332 331
4 312 313 333 332
4 313 314 334 333
4 314 315 335 334
4 315 316 336 335
4 316 317 337 336
4 317 318 338 337
4 318 319 339 338
4 321 320 340 341
4 320 322 342 340
4 322 323 343 342
4 323 324 344 343
4 324 325 345 344
4 325 326 346 345
4 326 327 347 346
4 327 328 348 347
4 328 329 349 348
4 329 330 350 349
4 330 331 351 350
4 331 332 352 351
4 332 333 353 352
4 333 334 354 353
4 334 335 355 354
4 335 336 356 355
4 336 337 357 356
4 337 338 358 357
4 338 339 359 358
4 341 340 360 361
4 340 342 362 360
4 342 343 363 362
4 343 344 364 363
4 344 345 365 364
4 345 346 366 365
4 346 347 367 366
4 347 348 368 367
4 348 349 369 368
4 349 350 370 369
4 350 351 371 370
4 351 352 372 371
4 352 353 373 372
4 353 354 374 373
4 354 355 375 374
4 355 356 376 375
4 356 357 377 376
4 357 358 378 377
4 358 359 379 378
4 361 360 380 381
4 360 362 382 380
4 362 363 383 382
4 363 364 384 383
4 364 365 385 384
4 365 366 386 385
4 366 367 387 386
4 367 368 388 387
4 368 369 389 388
4 369 370 390 389
4 370 371 391 390
4 371 372 392 391
4 372 373 393 392
4 373 374 394 393
4 374 375 395 394
4 375 376 396 395
4 376 377 397 396
4 377 378 398 397
4 378 379 399 398
